<?xml version="1.0" encoding="UTF-8" standalone="no"?>
<!DOCTYPE svg PUBLIC "-//W3C//DTD SVG 1.1//EN" "http://www.w3.org/Graphics/SVG/1.1/DTD/svg11.dtd">
<svg width="100%" height="100%" viewBox="0 0 328 52" version="1.1" xmlns="http://www.w3.org/2000/svg" xmlns:xlink="http://www.w3.org/1999/xlink" xml:space="preserve" xmlns:serif="http://www.serif.com/" style="fill-rule:evenodd;clip-rule:evenodd;stroke-linejoin:round;stroke-miterlimit:2;">
    <path d="M83.713,43.406C81.541,43.406 79.501,43.02 77.593,42.248C75.685,41.476 74.012,40.392 72.574,38.997C71.165,37.572 70.05,35.895 69.228,33.965C68.436,32.006 68.039,29.853 68.039,27.508C68.039,25.192 68.436,23.07 69.228,21.14C70.05,19.181 71.165,17.489 72.574,16.064C74.012,14.639 75.685,13.54 77.593,12.768C79.501,11.996 81.541,11.611 83.713,11.611C85.884,11.611 87.91,11.996 89.788,12.768C91.696,13.54 93.354,14.639 94.763,16.064C96.201,17.489 97.316,19.181 98.109,21.14C98.931,23.07 99.342,25.192 99.342,27.508C99.342,29.853 98.931,32.006 98.109,33.965C97.316,35.895 96.201,37.572 94.763,38.997C93.354,40.392 91.696,41.476 89.788,42.248C87.91,43.02 85.884,43.406 83.713,43.406ZM83.713,38.908C85.708,38.908 87.484,38.448 89.04,37.528C90.595,36.578 91.813,35.256 92.694,33.564C93.574,31.842 94.014,29.824 94.014,27.508C94.014,25.163 93.574,23.144 92.694,21.452C91.813,19.76 90.595,18.453 89.04,17.533C87.484,16.583 85.708,16.108 83.713,16.108C81.717,16.108 79.941,16.583 78.385,17.533C76.83,18.453 75.597,19.76 74.687,21.452C73.807,23.144 73.367,25.163 73.367,27.508C73.367,29.824 73.807,31.842 74.687,33.564C75.597,35.256 76.83,36.578 78.385,37.528C79.941,38.448 81.717,38.908 83.713,38.908Z" style="fill:rgb(216,223,233);fill-rule:nonzero;"/>
    <path d="M108.476,40.057C108.383,39.936 108.449,39.761 108.597,39.726C108.731,39.695 108.859,39.798 108.859,39.937L108.859,50.988C108.859,51.547 108.411,52 107.858,52L104.885,52C104.332,52 103.884,51.547 103.884,50.988L103.884,21.84C103.884,21.282 104.332,20.828 104.885,20.828L107.599,20.828C108.043,20.828 108.417,21.162 108.474,21.607C108.572,22.372 109.568,22.7 110.19,22.252C110.615,21.946 111.081,21.664 111.589,21.407C112.763,20.814 114.186,20.517 115.859,20.517C117.767,20.517 119.454,20.992 120.922,21.942C122.419,22.892 123.578,24.228 124.4,25.95C125.251,27.642 125.677,29.645 125.677,31.961C125.677,34.247 125.251,36.251 124.4,37.973C123.578,39.695 122.434,41.031 120.966,41.981C119.498,42.931 117.796,43.406 115.859,43.406C114.098,43.406 112.572,43.064 111.28,42.381C110.101,41.73 109.166,40.956 108.476,40.057ZM120.35,31.961C120.35,29.913 119.807,28.25 118.721,26.974C117.664,25.697 116.299,25.059 114.626,25.059C113.57,25.059 112.601,25.326 111.721,25.86C110.869,26.395 110.18,27.167 109.651,28.176C109.123,29.185 108.859,30.447 108.859,31.961C108.859,33.446 109.123,34.707 109.651,35.746C110.18,36.756 110.869,37.528 111.721,38.062C112.601,38.596 113.57,38.863 114.626,38.863C116.299,38.863 117.664,38.225 118.721,36.949C119.807,35.672 120.35,34.01 120.35,31.961Z" style="fill:rgb(216,223,233);fill-rule:nonzero;"/>
    <path d="M140.187,43.406C137.986,43.406 136.049,42.916 134.376,41.936C132.732,40.956 131.441,39.591 130.501,37.839C129.591,36.088 129.137,34.069 129.137,31.783C129.137,29.616 129.591,27.686 130.501,25.994C131.411,24.302 132.673,22.966 134.287,21.986C135.902,21.007 137.736,20.517 139.791,20.517C141.875,20.517 143.709,20.977 145.294,21.897C146.879,22.817 148.111,24.109 148.992,25.771C149.902,27.404 150.357,29.304 150.357,31.471C150.357,31.828 150.342,32.214 150.313,32.629C150.304,32.748 150.293,32.871 150.281,32.996C150.233,33.501 149.806,33.876 149.305,33.876L135.661,33.876C135.052,33.876 134.577,34.425 134.755,35.015C134.929,35.591 135.169,36.117 135.476,36.592C136.004,37.334 136.665,37.913 137.457,38.329C138.25,38.745 139.16,38.953 140.187,38.953C141.42,38.953 142.52,38.7 143.489,38.196C144.16,37.856 144.692,37.443 145.084,36.955C145.406,36.556 145.923,36.315 146.406,36.477L148.822,37.292C149.4,37.487 149.676,38.157 149.345,38.674C148.503,39.985 147.388,41.058 145.998,41.892C144.267,42.901 142.329,43.406 140.187,43.406ZM143.908,29.779C144.474,29.779 144.938,29.301 144.807,28.744C144.685,28.225 144.48,27.739 144.193,27.285C143.724,26.543 143.107,25.964 142.344,25.549C141.581,25.103 140.73,24.881 139.791,24.881C138.969,24.881 138.191,25.089 137.457,25.504C136.724,25.92 136.093,26.499 135.564,27.241C135.271,27.66 135.038,28.125 134.867,28.636C134.67,29.223 135.147,29.779 135.759,29.779L143.908,29.779Z" style="fill:rgb(216,223,233);fill-rule:nonzero;"/>
    <path d="M155.047,21.84C155.047,21.282 155.495,20.828 156.047,20.828L158.885,20.828C159.261,20.828 159.582,21.104 159.642,21.479C159.744,22.11 160.534,22.369 161.051,22.002C161.495,21.686 161.973,21.414 162.487,21.185C163.514,20.739 164.615,20.517 165.789,20.517C167.52,20.517 169.003,20.888 170.235,21.63C171.497,22.343 172.466,23.411 173.141,24.836C173.816,26.232 174.154,27.983 174.154,30.091L174.154,42.082C174.154,42.641 173.706,43.094 173.153,43.094L170.179,43.094C169.627,43.094 169.179,42.641 169.179,42.082L169.179,30.759C169.179,28.889 168.797,27.478 168.034,26.528C167.3,25.578 166.185,25.103 164.688,25.103C163.162,25.103 162.003,25.593 161.21,26.573C160.418,27.523 160.021,28.933 160.021,30.803L160.021,42.082C160.021,42.641 159.573,43.094 159.021,43.094L156.047,43.094C155.495,43.094 155.047,42.641 155.047,42.082L155.047,21.84Z" style="fill:rgb(216,223,233);fill-rule:nonzero;"/>
    <path d="M178.318,27.508C178.318,25.163 178.714,23.025 179.507,21.096C180.329,19.136 181.444,17.459 182.853,16.064C184.291,14.639 185.949,13.54 187.828,12.768C189.735,11.996 191.775,11.611 193.947,11.611C196.97,11.611 199.7,12.338 202.136,13.793C204.288,15.062 205.993,16.819 207.251,19.061C207.546,19.589 207.272,20.243 206.705,20.438L204.313,21.262C203.845,21.422 203.337,21.211 203.074,20.789C202.472,19.824 201.749,19.021 200.903,18.379C199.847,17.578 198.731,16.999 197.557,16.642C196.383,16.286 195.224,16.108 194.079,16.108C192.083,16.108 190.293,16.583 188.708,17.533C187.123,18.453 185.876,19.774 184.966,21.496C184.085,23.189 183.645,25.192 183.645,27.508C183.645,29.794 184.085,31.798 184.966,33.52C185.876,35.212 187.123,36.533 188.708,37.483C190.293,38.433 192.083,38.908 194.079,38.908C195.253,38.908 196.442,38.73 197.645,38.374C198.878,37.988 200.037,37.334 201.123,36.414C202.045,35.629 202.836,34.632 203.497,33.422C203.74,32.976 204.255,32.746 204.734,32.903L207.081,33.669C207.641,33.852 207.927,34.483 207.667,35.017C206.352,37.718 204.582,39.757 202.356,41.135C199.861,42.648 197.058,43.406 193.947,43.406C191.775,43.406 189.735,43.02 187.828,42.248C185.949,41.476 184.291,40.377 182.853,38.953C181.444,37.528 180.329,35.85 179.507,33.92C178.714,31.961 178.318,29.824 178.318,27.508Z" style="fill:rgb(216,223,233);fill-rule:nonzero;"/>
    <path d="M213.174,21.84C213.174,21.282 213.622,20.828 214.175,20.828L216.912,20.828C217.344,20.828 217.711,21.149 217.773,21.582C217.882,22.344 218.887,22.642 219.5,22.185C219.702,22.035 219.912,21.894 220.13,21.764C220.922,21.259 221.774,20.918 222.683,20.739C223.367,20.61 224.051,20.59 224.734,20.681C225.189,20.741 225.501,21.154 225.501,21.619L225.501,24.038C225.501,24.734 224.812,25.228 224.124,25.205C223.772,25.193 223.409,25.219 223.036,25.282C222.185,25.4 221.392,25.727 220.658,26.261C219.925,26.766 219.323,27.493 218.853,28.443C218.384,29.363 218.149,30.506 218.149,31.872L218.149,42.082C218.149,42.641 217.701,43.094 217.148,43.094L214.175,43.094C213.622,43.094 213.174,42.641 213.174,42.082L213.174,21.84Z" style="fill:rgb(216,223,233);fill-rule:nonzero;"/>
    <path d="M243.269,43.094C242.851,43.094 242.496,42.788 242.428,42.372C242.307,41.623 241.309,41.356 240.72,41.826C240.368,42.108 239.993,42.353 239.595,42.559C238.627,43.064 237.335,43.316 235.721,43.316C234.195,43.316 232.874,43.064 231.759,42.559C230.644,42.025 229.778,41.298 229.161,40.377C228.574,39.428 228.281,38.329 228.281,37.082C228.281,35.212 228.956,33.653 230.306,32.407C231.686,31.13 233.696,30.343 236.338,30.046L241.211,29.52C241.719,29.465 242.105,29.03 242.105,28.513L242.105,27.686C242.105,26.974 241.797,26.335 241.18,25.771C240.564,25.178 239.581,24.881 238.231,24.881C237.057,24.881 236.029,25.178 235.149,25.771C234.579,26.149 234.133,26.66 233.813,27.305C233.548,27.841 232.949,28.175 232.393,27.968L229.992,27.076C229.499,26.893 229.224,26.353 229.42,25.861C230.034,24.323 231.034,23.09 232.419,22.164C234.092,21.066 236.117,20.517 238.495,20.517C241.371,20.517 243.528,21.244 244.967,22.699C246.405,24.153 247.124,26.009 247.124,28.265L247.124,42.082C247.124,42.641 246.676,43.094 246.123,43.094L243.269,43.094ZM242.105,33.609C242.105,33.443 241.962,33.315 241.799,33.336L236.822,33.965C235.707,34.114 234.87,34.44 234.312,34.945C233.755,35.42 233.476,36.028 233.476,36.77C233.476,37.453 233.74,38.047 234.268,38.552C234.826,39.027 235.574,39.264 236.514,39.264C237.717,39.264 238.73,39.041 239.551,38.596C240.403,38.151 241.034,37.513 241.445,36.681C241.885,35.85 242.105,34.826 242.105,33.609Z" style="fill:rgb(216,223,233);fill-rule:nonzero;"/>
    <path d="M253.655,18.557C253.655,16.747 253.948,15.262 254.535,14.104C255.152,12.917 256.091,12.056 257.353,11.521C258.447,11.069 259.805,10.882 261.426,10.963C261.939,10.988 262.328,11.427 262.328,11.946L262.328,14.27C262.328,14.872 261.81,15.325 261.217,15.357C260.414,15.4 259.816,15.621 259.422,16.019C258.894,16.553 258.63,17.414 258.63,18.602L258.63,19.816C258.63,20.375 259.078,20.828 259.63,20.828L268.461,20.828C269.014,20.828 269.462,21.282 269.462,21.84L269.462,24.225C269.462,24.784 269.014,25.237 268.461,25.237L259.63,25.237C259.078,25.237 258.63,25.69 258.63,26.249L258.63,42.082C258.63,42.641 258.182,43.094 257.629,43.094L254.655,43.094C254.103,43.094 253.655,42.641 253.655,42.082L253.655,26.249C253.655,25.69 253.207,25.237 252.654,25.237L251.97,25.237C251.417,25.237 250.969,24.784 250.969,24.225L250.969,21.84C250.969,21.282 251.417,20.828 251.97,20.828L252.654,20.828C253.207,20.828 253.655,20.375 253.655,19.816L253.655,18.557Z" style="fill:rgb(216,223,233);fill-rule:nonzero;"/>
    <path d="M267.324,20.828C267.877,20.828 268.325,20.375 268.325,19.816L268.325,15.606C268.325,15.047 268.773,14.594 269.325,14.594L272.387,14.594C272.94,14.594 273.388,15.047 273.388,15.606L273.388,19.816C273.388,20.375 273.836,20.828 274.388,20.828L277.538,20.828C278.091,20.828 278.539,21.282 278.539,21.84L278.539,24.225C278.539,24.784 278.091,25.237 277.538,25.237L274.388,25.237C273.836,25.237 273.388,25.69 273.388,26.249L273.388,35.123C273.388,36.459 273.637,37.394 274.136,37.928C274.635,38.433 275.281,38.715 276.073,38.774C276.513,38.79 276.952,38.785 277.391,38.758C277.999,38.722 278.539,39.192 278.539,39.808L278.539,42.093C278.539,42.573 278.207,42.99 277.739,43.059C276.749,43.206 275.768,43.232 274.797,43.138C273.593,43.049 272.507,42.723 271.539,42.159C270.57,41.565 269.792,40.704 269.205,39.576C268.618,38.448 268.325,36.963 268.325,35.123L268.325,26.249C268.325,25.69 267.877,25.237 267.324,25.237L266.244,25.237C265.691,25.237 265.243,24.784 265.243,24.225L265.243,21.84C265.243,21.282 265.691,20.828 266.244,20.828L267.324,20.828Z" style="fill:rgb(216,223,233);fill-rule:nonzero;"/>
    <path d="M307.119,17.863C306.817,16.932 305.516,16.933 305.216,17.864L297.407,42.101L297.4,42.1L297.394,42.099C297.234,42.496 297.009,42.828 296.72,43.094C296.453,43.337 296.12,43.458 295.719,43.458C295.506,43.458 295.293,43.431 295.079,43.377C294.899,43.351 294.706,43.312 294.5,43.261L294.502,43.25C292.994,42.764 292.439,41.902 292.838,40.665L301.963,12.611C303.069,10.147 308.957,10.121 310.364,12.532C310.394,12.584 310.417,12.639 310.436,12.697C311.921,17.31 313.419,21.964 314.931,26.658C316.478,31.354 317.999,36.023 319.493,40.665C319.867,41.906 319.306,42.77 317.812,43.256C317.632,43.301 317.462,43.337 317.301,43.364C317.242,43.373 317.184,43.388 317.125,43.403C316.986,43.44 316.828,43.458 316.652,43.458C316.278,43.458 315.931,43.337 315.611,43.094C315.322,42.828 315.111,42.497 314.977,42.101L314.964,42.103L307.119,17.863ZM309.167,33.378C309.167,34.242 308.86,34.984 308.247,35.605C307.66,36.198 306.939,36.495 306.085,36.495C305.232,36.495 304.511,36.198 303.924,35.605C303.337,34.984 303.044,34.242 303.044,33.378C303.044,32.514 303.337,31.786 303.924,31.192C304.511,30.571 305.232,30.261 306.085,30.261C306.939,30.261 307.66,30.571 308.247,31.192C308.86,31.786 309.167,32.514 309.167,33.378Z" style="fill:rgb(216,223,233);fill-rule:nonzero;"/>
    <path d="M328,41.394C328,42.689 327.2,43.337 325.599,43.337C324.024,43.337 323.237,42.689 323.237,41.394L323.237,12.691C323.237,11.396 324.024,10.748 325.599,10.748C327.2,10.748 328,11.396 328,12.691L328,41.394Z" style="fill:rgb(216,223,233);fill-rule:nonzero;"/>
    <path d="M48.456,13.646C47.694,12.396 47.592,10.868 48.133,9.506C48.191,9.362 48.244,9.219 48.292,9.07C48.638,8.014 48.771,6.886 48.705,5.78C48.492,2.382 43.035,-2.598 37.242,1.613C37.087,1.726 36.888,1.766 36.71,1.843C35.31,2.44 33.807,2.796 32.313,2.526C30.957,2.283 29.565,2.153 28.142,2.153C16.551,2.153 6.893,10.527 4.721,21.633C4.295,23.813 4.721,24.247 2.088,27.661C-1.17,31.886 -1.396,39.007 7.15,41.115C9.286,42.067 9.613,43.031 15.097,46.67C19.264,49.434 24.33,50.913 29.76,50.549C41.848,49.74 51.524,39.658 52.011,27.382C52.206,22.335 50.877,17.61 48.456,13.646ZM27.194,10.706C19.499,11.169 13.227,17.462 12.695,25.261C12.07,34.435 19.224,42.076 28.129,42.067C31.617,42.067 34.835,40.894 37.424,38.916C38.248,38.287 38.452,37.132 37.943,36.224C37.938,36.219 37.938,36.215 37.934,36.21C37.18,34.862 36.529,33.423 36.334,31.886C36.139,30.353 36.449,28.695 37.442,27.517C38.466,26.299 40.039,25.746 41.458,25.041L41.48,25.032C42.703,24.42 43.31,22.995 42.903,21.678C40.846,15.017 34.534,10.266 27.194,10.706Z" style="fill:rgb(40,114,226);"/>
</svg>
