<?xml version="1.0" encoding="UTF-8" standalone="no"?>
<!DOCTYPE svg PUBLIC "-//W3C//DTD SVG 1.1//EN" "http://www.w3.org/Graphics/SVG/1.1/DTD/svg11.dtd">
<svg width="100%" height="100%" viewBox="0 0 1024 996" version="1.1" xmlns="http://www.w3.org/2000/svg" xmlns:xlink="http://www.w3.org/1999/xlink" xml:space="preserve" xmlns:serif="http://www.serif.com/" style="fill-rule:evenodd;clip-rule:evenodd;stroke-linejoin:round;stroke-miterlimit:2;">
    <g transform="matrix(19.681047,0,0,19.681047,-0.001493,0.000298)">
        <path d="M48.456,13.646C47.694,12.396 47.592,10.868 48.133,9.506C48.191,9.362 48.244,9.219 48.292,9.07C48.638,8.014 48.771,6.886 48.705,5.78C48.492,2.382 43.035,-2.598 37.242,1.613C37.087,1.726 36.888,1.766 36.71,1.843C35.31,2.44 33.807,2.796 32.313,2.526C30.957,2.283 29.565,2.153 28.142,2.153C16.551,2.153 6.893,10.527 4.721,21.633C4.295,23.813 4.721,24.247 2.088,27.661C-1.17,31.886 -1.396,39.007 7.15,41.115C9.286,42.067 9.613,43.031 15.097,46.67C19.264,49.434 24.33,50.913 29.76,50.549C41.848,49.74 51.524,39.658 52.011,27.382C52.206,22.335 50.877,17.61 48.456,13.646ZM27.194,10.706C19.499,11.169 13.227,17.462 12.695,25.261C12.07,34.435 19.224,42.076 28.129,42.067C31.617,42.067 34.835,40.894 37.424,38.916C38.248,38.287 38.452,37.132 37.943,36.224C37.938,36.219 37.938,36.215 37.934,36.21C37.18,34.862 36.529,33.423 36.334,31.886C36.139,30.353 36.449,28.695 37.442,27.517C38.466,26.299 40.039,25.746 41.458,25.041L41.48,25.032C42.703,24.42 43.31,22.995 42.903,21.678C40.846,15.017 34.534,10.266 27.194,10.706Z" style="fill:rgb(40,114,226);"/>
    </g>
</svg>
